# xmcd
#
# Track frame offsets:
#	150
#	16061
#	35443
#	52244
#	67820
#	80804
#	101065
#	118329
#	133949
#	154038
#	175288
#	193920
#	214318
#	231484
#	247230
#	274685
#
# Disc length: 3677 seconds
#
# Revision: 1
# Processed by: cddbd v1.5.2PL0 Copyright (c) Steve Scherf et al.
# Submitted via: audiograbber 1.83.01
#
DISCID=f80e5b10
DTITLE=Mark Wills - 90283
DYEAR=2011
DGENRE=Country
TTITLE0=19 Somethin'
TTITLE1=And The Crowd Goes Wild
TTITLE2=Don't Laugh At Me
TTITLE3=High Low And In Between
TTITLE4=That's A Woman
TTITLE5=Back At One
TTITLE6=Almost Doesn't Count
TTITLE7=I Do
TTITLE8=She's In Love
TTITLE9=When You Think Of Me
TTITLE10=Wish You Were Here
TTITLE11=Loving Every Minute
TTITLE12=Places I've Never Been
TTITLE13=I Want To Know
TTITLE14=Rich Man
TTITLE15=data
EXTD=First Submit
EXTT0=
EXTT1=
EXTT2=
EXTT3=
EXTT4=
EXTT5=
EXTT6=
EXTT7=
EXTT8=
EXTT9=
EXTT10=
EXTT11=
EXTT12=
EXTT13=
EXTT14=
EXTT15=
PLAYORDER=
